<svg xmlns="http://www.w3.org/2000/svg" xmlns:xlink="http://www.w3.org/1999/xlink" width="500" zoomAndPan="magnify" viewBox="0 0 375 374.999991" height="500" preserveAspectRatio="xMidYMid meet" version="1.0"><defs><g/></defs><g fill="#ffffff" fill-opacity="1"><g transform="translate(4.273086, 230.215104)"><g><path d="M 90 -97.96875 C 91.257812 -98.59375 92.425781 -98.90625 93.5 -98.90625 C 95.59375 -98.90625 97.332031 -97.546875 98.71875 -94.828125 C 99.476562 -93.316406 99.859375 -91.988281 99.859375 -90.84375 C 99.859375 -88.757812 98.5625 -87.085938 95.96875 -85.828125 L 32.25 -55.28125 L 95.96875 -24.75 C 98.5625 -23.488281 99.859375 -21.8125 99.859375 -19.71875 C 99.859375 -18.582031 99.476562 -17.257812 98.71875 -15.75 C 97.332031 -13.03125 95.59375 -11.671875 93.5 -11.671875 C 92.425781 -11.671875 91.257812 -11.984375 90 -12.609375 L 16.3125 -48.75 C 14.726562 -49.5 13.585938 -50.378906 12.890625 -51.390625 C 12.203125 -52.410156 11.859375 -53.707031 11.859375 -55.28125 C 11.859375 -56.863281 12.203125 -58.160156 12.890625 -59.171875 C 13.585938 -60.179688 14.726562 -61.066406 16.3125 -61.828125 Z M 90 -97.96875 "/></g></g></g><g fill="#ffffff" fill-opacity="1"><g transform="translate(129.275058, 230.215104)"><g><path d="M 99.296875 -112.5625 C 101.441406 -112.5625 102.972656 -112.070312 103.890625 -111.09375 C 104.804688 -110.113281 105.265625 -108.457031 105.265625 -106.125 L 105.265625 -81.078125 C 105.265625 -78.867188 104.726562 -77.289062 103.65625 -76.34375 C 102.582031 -75.394531 100.75 -74.921875 98.15625 -74.921875 C 95.5625 -74.921875 93.726562 -75.394531 92.65625 -76.34375 C 91.582031 -77.289062 91.046875 -78.867188 91.046875 -81.078125 L 91.046875 -99.671875 L 40.296875 -99.671875 L 40.296875 -62.59375 L 64.390625 -62.59375 L 64.390625 -71.21875 C 64.390625 -73.425781 64.878906 -75.003906 65.859375 -75.953125 C 66.835938 -76.910156 68.59375 -77.390625 71.125 -77.390625 C 73.65625 -77.390625 75.410156 -76.910156 76.390625 -75.953125 C 77.367188 -75.003906 77.859375 -73.425781 77.859375 -71.21875 L 77.859375 -41.0625 C 77.859375 -38.851562 77.367188 -37.273438 76.390625 -36.328125 C 75.410156 -35.378906 73.65625 -34.90625 71.125 -34.90625 C 68.59375 -34.90625 66.835938 -35.378906 65.859375 -36.328125 C 64.878906 -37.273438 64.390625 -38.851562 64.390625 -41.0625 L 64.390625 -49.6875 L 40.296875 -49.6875 L 40.296875 -12.890625 L 62.3125 -12.890625 C 64.457031 -12.890625 65.988281 -12.398438 66.90625 -11.421875 C 67.820312 -10.441406 68.28125 -8.785156 68.28125 -6.453125 C 68.28125 -4.109375 67.820312 -2.445312 66.90625 -1.46875 C 65.988281 -0.488281 64.457031 0 62.3125 0 L 13.5625 0 C 11.414062 0 9.882812 -0.488281 8.96875 -1.46875 C 8.050781 -2.445312 7.59375 -4.109375 7.59375 -6.453125 C 7.59375 -8.785156 8.050781 -10.441406 8.96875 -11.421875 C 9.882812 -12.398438 11.414062 -12.890625 13.5625 -12.890625 L 26.078125 -12.890625 L 26.078125 -99.671875 L 13.5625 -99.671875 C 11.414062 -99.671875 9.882812 -100.160156 8.96875 -101.140625 C 8.050781 -102.117188 7.59375 -103.78125 7.59375 -106.125 C 7.59375 -108.457031 8.050781 -110.113281 8.96875 -111.09375 C 9.882812 -112.070312 11.414062 -112.5625 13.5625 -112.5625 Z M 99.296875 -112.5625 "/></g></g></g><g fill="#ffffff" fill-opacity="1"><g transform="translate(254.27703, 230.215104)"><g><path d="M 100.140625 -61.828125 C 101.722656 -61.066406 102.859375 -60.179688 103.546875 -59.171875 C 104.242188 -58.160156 104.59375 -56.863281 104.59375 -55.28125 C 104.59375 -53.707031 104.242188 -52.410156 103.546875 -51.390625 C 102.859375 -50.378906 101.722656 -49.5 100.140625 -48.75 L 26.453125 -12.609375 C 25.191406 -11.984375 24.023438 -11.671875 22.953125 -11.671875 C 20.859375 -11.671875 19.117188 -13.03125 17.734375 -15.75 C 16.972656 -17.257812 16.59375 -18.582031 16.59375 -19.71875 C 16.59375 -21.8125 17.890625 -23.488281 20.484375 -24.75 L 84.21875 -55.28125 L 20.484375 -85.828125 C 17.890625 -87.085938 16.59375 -88.757812 16.59375 -90.84375 C 16.59375 -91.988281 16.972656 -93.316406 17.734375 -94.828125 C 19.117188 -97.546875 20.859375 -98.90625 22.953125 -98.90625 C 24.023438 -98.90625 25.191406 -98.59375 26.453125 -97.96875 Z M 100.140625 -61.828125 "/></g></g></g></svg>